<?xml version="1.0" encoding="utf-8"?>
<svg viewBox="0 0 148 148" width="148px" height="148px" xmlns="http://www.w3.org/2000/svg" xmlns:bx="https://boxy-svg.com">
  <defs>
    <bx:grid x="0.287" y="0.287" width="3.863" height="3.863"/>
  </defs>
  <g transform="matrix(1.017665, 0, 0, 1.017658, 5.468932, 6.339382)" style="pointer-events: none;" bx:origin="0 0">
    <title>Tile</title>
    <path d="M 122.621 11.392 L 34.311 -4.18 C 23.895 -6.018 13.871 1.004 12.034 11.418 L -3.538 99.729 C -5.374 110.145 1.644 120.168 12.06 122.006 L 100.37 137.578 C 110.786 139.414 120.811 132.392 122.647 121.978 L 138.219 33.667 C 140.057 23.253 133.037 13.227 122.621 11.392" fill="#008CD4" bx:origin="0.000003 0.000002"/>
  </g>
  <title>A</title>
  <title>B</title>
  <path d="M 27.724 73.98 C 27.71 61.711 32.587 49.942 41.276 41.28 C 66.456 16.108 109.443 27.633 118.652 62.025 C 127.862 96.417 96.387 127.883 61.998 118.663 C 41.778 113.241 27.721 94.914 27.724 73.98 Z M 67.037 85.543 C 64.483 85.543 62.413 83.471 62.413 80.918 L 62.413 78.605 C 62.413 76.824 60.486 75.712 58.944 76.602 C 58.229 77.015 57.787 77.778 57.787 78.605 L 57.787 80.918 C 57.787 83.471 55.718 85.543 53.162 85.543 L 50.849 85.543 C 49.07 85.543 47.958 87.469 48.846 89.012 C 49.261 89.726 50.024 90.168 50.849 90.168 L 53.162 90.168 C 55.718 90.168 57.787 92.239 57.787 94.793 L 57.787 97.105 C 57.787 98.885 59.715 99.999 61.256 99.108 C 61.971 98.694 62.413 97.931 62.413 97.105 L 62.413 94.793 C 62.413 92.239 64.483 90.168 67.037 90.168 L 69.35 90.168 C 71.13 90.168 72.243 88.24 71.353 86.699 C 70.94 85.983 70.177 85.543 69.35 85.543 L 67.037 85.543 Z M 94.788 57.792 C 90.957 57.792 87.85 54.685 87.85 50.854 L 87.85 47.385 C 87.85 44.714 84.96 43.046 82.647 44.382 C 81.574 45.001 80.913 46.146 80.913 47.385 L 80.913 50.854 C 80.913 54.685 77.807 57.792 73.975 57.792 L 70.506 57.792 C 67.836 57.792 66.167 60.682 67.502 62.995 C 68.122 64.068 69.268 64.73 70.506 64.73 L 73.975 64.73 C 77.807 64.73 80.913 67.835 80.913 71.667 L 80.913 75.136 C 80.913 77.806 83.803 79.475 86.116 78.141 C 87.19 77.52 87.85 76.374 87.85 75.136 L 87.85 71.667 C 87.85 67.835 90.957 64.73 94.788 64.73 L 98.257 64.73 C 100.928 64.73 102.596 61.839 101.262 59.526 C 100.642 58.452 99.496 57.792 98.257 57.792 L 94.788 57.792 Z M 90.163 99.418 C 93.724 99.418 95.949 95.563 94.17 92.48 C 93.343 91.049 91.817 90.168 90.163 90.168 C 86.603 90.168 84.378 94.022 86.157 97.105 C 86.984 98.536 88.511 99.418 90.163 99.418 Z M 52.006 60.105 C 54.677 60.105 56.345 57.213 55.011 54.902 C 54.391 53.828 53.245 53.167 52.006 53.167 C 49.336 53.167 47.667 56.057 49.002 58.37 C 49.621 59.443 50.767 60.105 52.006 60.105 Z" class="fill-primary" style="fill: rgb(255, 255, 255);"/>
</svg>